<svg width="106" height="28" viewBox="0 0 106 28" fill="none" xmlns="http://www.w3.org/2000/svg">
<path fill-rule="evenodd" clip-rule="evenodd" d="M11.7983 19.4068C13.3204 19.4068 14.8084 18.9679 16.074 18.1457C17.3395 17.3236 18.3259 16.1549 18.9084 14.7877C19.4909 13.4204 19.6433 11.916 19.3463 10.4645C19.0494 9.01305 18.3164 7.67988 17.2401 6.63344C16.1639 5.587 14.7926 4.87437 13.2997 4.58565C11.8068 4.29694 10.2594 4.44509 8.85321 5.01142C7.44697 5.57775 6.24512 6.53681 5.39949 7.76729C4.55385 8.99778 4.10246 10.4444 4.10246 11.9243C4.10246 13.9087 4.91329 15.812 6.35655 17.2152C7.79981 18.6184 9.75721 19.4068 11.7983 19.4068ZM11.7775 23.3549C14.107 23.3549 16.3842 22.6833 18.321 21.4249C20.2579 20.1666 21.7674 18.3781 22.6587 16.2856C23.5501 14.1931 23.7832 11.8905 23.3286 9.6692C22.874 7.44788 21.752 5.40763 20.1047 3.80628C18.4573 2.20493 16.3585 1.11445 14.0737 0.672865C11.789 0.231283 9.42089 0.458435 7.26887 1.32547C5.11685 2.19251 3.27758 3.66047 1.98372 5.54386C0.689872 7.42725 -0.000457429 9.64138 2.27406e-07 11.9063C1.97548e-07 13.4099 0.304602 14.8988 0.896506 16.288C1.48841 17.6771 2.35598 18.9394 3.44966 20.0025C4.54333 21.0656 5.84167 21.9089 7.27057 22.4841C8.69947 23.0593 10.231 23.3552 11.7775 23.3549ZM32.8336 7.58242C32.8336 7.06393 32.6217 6.56661 32.2446 6.19998C31.8675 5.83335 31.3561 5.62745 30.8229 5.62745C30.2896 5.62745 29.7781 5.83335 29.401 6.19998C29.0239 6.56661 28.8121 7.06393 28.8121 7.58242V15.1548C28.8121 20.2278 32.2551 23.292 37.1096 23.292C41.9641 23.292 45.407 20.2278 45.407 15.1548V7.59362V7.58242C45.407 7.06393 45.1953 6.56661 44.8182 6.19998C44.4411 5.83335 43.9296 5.62745 43.3963 5.62745C42.863 5.62745 42.3516 5.83335 41.9746 6.19998C41.5975 6.56661 41.3856 7.06393 41.3856 7.58242V15.0064C41.3856 17.931 39.7196 19.5845 37.1096 19.5845C34.5366 19.5845 32.8336 17.9287 32.8336 15.0064V7.58242ZM64.0706 17.2471C63.6507 17.0149 63.1541 16.9515 62.6867 17.0704C62.2194 17.1894 61.8184 17.4813 61.5693 17.8837C60.6646 19.1076 59.1629 19.8769 57.2794 19.8769C54.4519 19.8769 52.4203 18.2571 51.9576 15.4023H64.6699C64.8515 15.4095 65.0329 15.3814 65.2032 15.3195C65.3734 15.2575 65.5292 15.163 65.6614 15.0416C65.7936 14.9203 65.8995 14.7743 65.9728 14.6126C66.0461 14.4508 66.0854 14.2764 66.0884 14.0997C66.0884 8.92542 62.356 5.11677 57.1013 5.11677C51.9923 5.11677 47.9708 9.09644 47.9708 14.2055C47.9708 19.2785 51.9923 23.2942 57.2841 23.2942C58.6519 23.3008 60.0043 23.0131 61.2444 22.4519C62.4845 21.8907 63.5815 21.0697 64.457 20.0479C64.5669 19.9404 64.6619 19.8195 64.7394 19.688C64.9842 19.2789 65.0519 18.792 64.9278 18.3343C64.8037 17.8767 64.4979 17.4857 64.0775 17.2471H64.0706ZM57.062 8.498C59.7784 8.498 61.6619 10.1898 61.9882 12.5474H52.0617C52.6472 10.012 54.5677 8.498 57.069 8.498H57.062ZM77.0167 23.2942C81.8758 23.2942 85.3142 20.2301 85.3142 15.1571V7.5666C85.2945 7.05928 85.0728 6.5793 84.6959 6.22788C84.3191 5.87646 83.8166 5.6811 83.2944 5.68314C82.7722 5.68519 82.2713 5.88451 81.8974 6.23887C81.5235 6.59323 81.3058 7.07496 81.2903 7.58242C81.2892 7.6034 81.2892 7.62438 81.2903 7.64536V15.0154C81.2903 17.94 79.622 19.5957 77.0143 19.5957C74.4066 19.5957 72.7383 17.94 72.7383 15.0154V7.5666C72.7187 7.05928 72.497 6.5793 72.1202 6.22788C71.7434 5.87646 71.2407 5.6811 70.7186 5.68314C70.1964 5.68519 69.6956 5.88451 69.3217 6.23887C68.9477 6.59323 68.73 7.07496 68.7145 7.58242C68.7145 7.60491 68.7145 7.62737 68.7145 7.64986V15.1571C68.7261 20.2301 72.1691 23.3032 77.0236 23.3032L77.0167 23.2942ZM104.644 19.7217L104.623 19.7464C104.55 19.8596 104.464 19.9646 104.366 20.0592C103.49 21.0788 102.392 21.8975 101.152 22.4567C99.9121 23.016 98.5603 23.302 97.1935 23.2942C91.904 23.2942 87.8826 19.2785 87.8826 14.2055C87.8826 9.09644 91.904 5.11677 97.013 5.11677C102.268 5.11677 106 8.92092 106 14.0997C105.997 14.2764 105.958 14.4508 105.885 14.6126C105.811 14.7743 105.705 14.9203 105.573 15.0416C105.441 15.163 105.285 15.2575 105.115 15.3195C104.945 15.3814 104.763 15.4095 104.582 15.4023H91.867C92.3297 18.2571 94.3682 19.8769 97.1888 19.8769C99.0839 19.8769 100.59 19.1008 101.495 17.8657C101.53 17.8117 101.567 17.7577 101.606 17.7082L101.62 17.688C101.908 17.3339 102.323 17.0988 102.782 17.0299C103.241 16.961 103.71 17.0634 104.094 17.3165C104.478 17.5696 104.75 17.9547 104.855 18.3945C104.96 18.8344 104.889 19.2965 104.658 19.688C104.65 19.6977 104.644 19.7082 104.639 19.7194L104.644 19.7217ZM101.902 12.5497C101.576 10.1898 99.6925 8.50031 96.9737 8.50031C94.4747 8.50031 92.5542 10.0143 91.9734 12.5497H101.902Z" fill="white"/>
<path d="M18.3022 27.453C17.8416 27.4536 17.3961 27.2933 17.047 27.0013C16.6978 26.7092 16.4682 26.3049 16.4 25.862C16.3319 25.4192 16.4298 24.9672 16.6757 24.5886C16.9217 24.21 17.2994 23.93 17.74 23.7995C19.7501 23.1986 21.4853 21.9414 22.6523 20.2405C22.9369 19.8331 23.3755 19.5515 23.8726 19.457C24.3698 19.3626 24.8851 19.4629 25.3065 19.7362C25.7279 20.0094 26.0213 20.4335 26.1226 20.916C26.224 21.3986 26.1251 21.9004 25.8477 22.3124C24.1888 24.7292 21.7231 26.5155 18.8668 27.3697C18.6839 27.4248 18.4936 27.4529 18.3022 27.453Z" fill="white"/>
<path fill-rule="evenodd" clip-rule="evenodd" d="M11.7983 19.4107C13.3204 19.4107 14.8084 18.9718 16.0739 18.1496C17.3395 17.3275 18.3259 16.1588 18.9084 14.7916C19.4909 13.4243 19.6433 11.9199 19.3463 10.4684C19.0494 9.01695 18.3164 7.68379 17.2401 6.63735C16.1638 5.5909 14.7925 4.87827 13.2997 4.58956C11.8068 4.30085 10.2594 4.449 8.85321 5.01533C7.44697 5.58166 6.24512 6.54071 5.39948 7.7712C4.55385 9.00168 4.10246 10.4483 4.10246 11.9282C4.10246 13.9127 4.91329 15.8159 6.35655 17.2191C7.79981 18.6224 9.75721 19.4107 11.7983 19.4107ZM11.7775 23.3589C14.107 23.3589 16.3842 22.6872 18.321 21.4288C20.2579 20.1705 21.7674 18.382 22.6587 16.2895C23.5501 14.197 23.7832 11.8944 23.3286 9.67311C22.874 7.45179 21.752 5.41154 20.1047 3.81019C18.4573 2.20884 16.3585 1.11835 14.0737 0.676772C11.789 0.23519 9.42089 0.462342 7.26887 1.32938C5.11685 2.19642 3.27758 3.66437 1.98372 5.54776C0.689872 7.43115 -0.000457429 9.64529 2.27406e-07 11.9102C1.97548e-07 13.4138 0.304602 14.9027 0.896506 16.2919C1.48841 17.6811 2.35598 18.9433 3.44965 20.0064C4.54333 21.0695 5.84166 21.9128 7.27057 22.488C8.69947 23.0632 10.231 23.3592 11.7775 23.3589Z" fill="white"/>
</svg>
