<svg width="117" height="30" viewBox="0 0 117 30" fill="none" xmlns="http://www.w3.org/2000/svg">
<path fill-rule="evenodd" clip-rule="evenodd" d="M13.4113 21.0596C15.077 21.0596 16.7054 20.572 18.0904 19.6585C19.4753 18.7449 20.5548 17.4464 21.1922 15.9273C21.8297 14.4081 21.9964 12.7365 21.6715 11.1238C21.3465 9.51102 20.5444 8.02973 19.3666 6.86702C18.1887 5.7043 16.6881 4.91249 15.0544 4.5917C13.4207 4.27091 11.7273 4.43552 10.1884 5.06478C8.64951 5.69403 7.33428 6.75965 6.40887 8.12685C5.48346 9.49406 4.98949 11.1014 4.98949 12.7457C4.98949 14.9507 5.87681 17.0654 7.45622 18.6245C9.03564 20.1837 11.1777 21.0596 13.4113 21.0596ZM13.3886 25.4465C15.9378 25.4465 18.4299 24.7002 20.5494 23.302C22.669 21.9038 24.3209 19.9166 25.2963 17.5916C26.2718 15.2666 26.5269 12.7082 26.0294 10.2401C25.5319 7.77195 24.3041 5.50501 22.5013 3.72573C20.6986 1.94645 18.4018 0.734803 15.9014 0.244156C13.4011 -0.246491 10.8097 0.00590028 8.45462 0.969275C6.09958 1.93265 4.08678 3.56372 2.67087 5.65637C1.25495 7.74902 0.499499 10.2092 0.5 12.7257C0.5 14.3964 0.833338 16.0508 1.48108 17.5943C2.12883 19.1378 3.07824 20.5403 4.2751 21.7215C5.47195 22.9028 6.89277 23.8397 8.45647 24.4788C10.0202 25.118 11.6962 25.4468 13.3886 25.4465ZM36.4311 7.92144C36.4311 7.34533 36.1992 6.79276 35.7866 6.38539C35.3739 5.97803 34.8143 5.74925 34.2307 5.74925C33.6471 5.74925 33.0873 5.97803 32.6747 6.38539C32.262 6.79276 32.0303 7.34533 32.0303 7.92144V16.3352C32.0303 21.9719 35.7981 25.3765 41.1105 25.3765C46.4229 25.3765 50.1907 21.9719 50.1907 16.3352V7.93389V7.92144C50.1907 7.34533 49.959 6.79276 49.5463 6.38539C49.1337 5.97803 48.5739 5.74925 47.9903 5.74925C47.4067 5.74925 46.8471 5.97803 46.4344 6.38539C46.0218 6.79276 45.7899 7.34533 45.7899 7.92144V16.1703C45.7899 19.4198 43.9667 21.2571 41.1105 21.2571C38.2947 21.2571 36.4311 19.4173 36.4311 16.1703V7.92144ZM70.615 18.6599C70.1555 18.4019 69.612 18.3315 69.1006 18.4637C68.5891 18.5958 68.1503 18.9202 67.8778 19.3674C66.8877 20.7272 65.2443 21.582 63.1832 21.582C60.0889 21.582 57.8657 19.7822 57.3592 16.6102H71.2708C71.4696 16.6182 71.668 16.587 71.8544 16.5181C72.0407 16.4493 72.2112 16.3443 72.3559 16.2095C72.5005 16.0746 72.6164 15.9125 72.6966 15.7327C72.7769 15.553 72.8199 15.3592 72.8231 15.1629C72.8231 9.41366 68.7387 5.18183 62.9882 5.18183C57.3972 5.18183 52.9964 9.60369 52.9964 15.2804C52.9964 20.9171 57.3972 25.379 63.1882 25.379C64.6851 25.3863 66.1651 25.0667 67.5222 24.4431C68.8793 23.8195 70.0798 22.9073 71.0379 21.7719C71.1582 21.6525 71.2621 21.5182 71.3469 21.3721C71.6148 20.9175 71.6889 20.3765 71.5531 19.868C71.4173 19.3595 71.0826 18.9251 70.6226 18.6599H70.615ZM62.9452 8.93875C65.9179 8.93875 67.9791 10.8185 68.3361 13.4381H57.4732C58.1139 10.621 60.2156 8.93875 62.9528 8.93875H62.9452ZM84.7824 25.379C90.0999 25.379 93.8627 21.9745 93.8627 16.3378V7.90386C93.8411 7.34017 93.5985 6.80686 93.1861 6.4164C92.7737 6.02593 92.2238 5.80886 91.6524 5.81113C91.0809 5.8134 90.5327 6.03487 90.1235 6.4286C89.7143 6.82233 89.4762 7.35759 89.4592 7.92144C89.458 7.94475 89.458 7.96806 89.4592 7.99137V16.1803C89.4592 19.4299 87.6336 21.2696 84.7798 21.2696C81.9261 21.2696 80.1004 19.4299 80.1004 16.1803V7.90386C80.0789 7.34017 79.8364 6.80686 79.424 6.4164C79.0116 6.02593 78.4615 5.80886 77.8901 5.81113C77.3187 5.8134 76.7706 6.03487 76.3614 6.4286C75.9522 6.82233 75.7139 7.35759 75.697 7.92144C75.697 7.94643 75.697 7.97138 75.697 7.99638V16.3378C75.7097 21.9745 79.4775 25.389 84.79 25.389L84.7824 25.379ZM115.016 21.4096L114.993 21.437C114.913 21.5628 114.819 21.6794 114.712 21.7845C113.753 22.9174 112.552 23.8271 111.195 24.4484C109.838 25.0698 108.358 25.3876 106.863 25.379C101.074 25.379 96.6734 20.9171 96.6734 15.2804C96.6734 9.60369 101.074 5.18183 106.665 5.18183C112.416 5.18183 116.5 9.40866 116.5 15.1629C116.497 15.3592 116.454 15.553 116.374 15.7327C116.293 15.9125 116.178 16.0746 116.033 16.2095C115.888 16.3443 115.718 16.4493 115.531 16.5181C115.345 16.587 115.147 16.6182 114.948 16.6102H101.034C101.54 19.7822 103.771 21.582 106.858 21.582C108.931 21.582 110.58 20.7197 111.57 19.3473C111.608 19.2874 111.648 19.2273 111.692 19.1723L111.707 19.1499C112.022 18.7564 112.476 18.4952 112.978 18.4186C113.481 18.3421 113.993 18.4558 114.414 18.7371C114.835 19.0183 115.132 19.4462 115.247 19.9349C115.361 20.4236 115.284 20.9371 115.031 21.3721C115.023 21.3829 115.016 21.3945 115.011 21.407L115.016 21.4096ZM112.016 13.4407C111.659 10.8186 109.597 8.94132 106.622 8.94132C103.887 8.94132 101.786 10.6236 101.15 13.4407H112.016Z" fill="#00022B"/>
<path d="M20.5286 30C20.0245 30.0007 19.537 29.8226 19.1549 29.4981C18.7728 29.1736 18.5216 28.7244 18.447 28.2323C18.3724 27.7402 18.4795 27.238 18.7486 26.8173C19.0178 26.3966 19.4312 26.0856 19.9133 25.9406C22.1131 25.273 24.012 23.8761 25.2891 21.9861C25.6005 21.5334 26.0805 21.2206 26.6245 21.1156C27.1685 21.0107 27.7325 21.1221 28.1936 21.4257C28.6548 21.7294 28.9759 22.2006 29.0868 22.7367C29.1977 23.2729 29.0895 23.8305 28.7859 24.2883C26.9705 26.9736 24.2722 28.9583 21.1464 29.9075C20.9463 29.9687 20.738 29.9999 20.5286 30Z" fill="#262FFC"/>
<path fill-rule="evenodd" clip-rule="evenodd" d="M13.4113 21.0638C15.077 21.0638 16.7054 20.5762 18.0904 19.6626C19.4753 18.7491 20.5548 17.4506 21.1922 15.9315C21.8297 14.4123 21.9964 12.7407 21.6715 11.1279C21.3465 9.5152 20.5444 8.03391 19.3666 6.8712C18.1887 5.70849 16.6881 4.91667 15.0544 4.59588C13.4207 4.27509 11.7273 4.4397 10.1884 5.06896C8.64951 5.69821 7.33428 6.76383 6.40887 8.13103C5.48346 9.49824 4.98948 11.1056 4.98948 12.7499C4.98948 14.9549 5.87681 17.0696 7.45622 18.6287C9.03564 20.1879 11.1777 21.0638 13.4113 21.0638ZM13.3886 25.4507C15.9378 25.4507 18.4299 24.7043 20.5494 23.3062C22.669 21.908 24.3209 19.9208 25.2963 17.5958C26.2718 15.2708 26.5269 12.7124 26.0294 10.2443C25.5319 7.77613 24.3041 5.50919 22.5013 3.72991C20.6986 1.95063 18.4017 0.738983 15.9014 0.248337C13.4011 -0.24231 10.8097 0.0100812 8.45461 0.973456C6.09957 1.93683 4.08678 3.5679 2.67087 5.66055C1.25495 7.7532 0.499499 10.2134 0.5 12.7299C0.5 14.4006 0.833338 16.055 1.48108 17.5985C2.12883 19.142 3.07824 20.5444 4.27509 21.7257C5.47194 22.907 6.89276 23.8439 8.45647 24.483C10.0202 25.1221 11.6961 25.451 13.3886 25.4507Z" fill="#00022B"/>
</svg>
